# xmcd CD database file
#
# Track frame offsets:
#	150
#	24054
#	44588
#	66089
#	93222
#	115630
#	132695
#	158676
#	177899
#	203016
#	225058
#	249373
#	271560
#
# Disc length: 3943 seconds
#
# Revision: 9
# Processed by: cddbd v1.5.2PL0 Copyright (c) Steve Scherf et al.
# Submitted via: CDex 1.51
#
DISCID=940f650d
DTITLE=Angela Aki - TODAY
DYEAR=2007
DGENRE=JPop
TTITLE0=Sakurairo (Sakura Colour)
TTITLE1=Again
TTITLE2=TODAY
TTITLE3=Ai no Uta (Love Song)
TTITLE4=Tashika ni (Surely)
TTITLE5=Silent Girl
TTITLE6=Moral no Soushiki (The Funeral of Morals)
TTITLE7=Otome Kokoro (The Feelings of a Girl)
TTITLE8=One Melody
TTITLE9=Tomo no Shirushi (Friend Symbol)
TTITLE10=Kodoku no Kakera (Fragments of Solitude)
TTITLE11=On and On
TTITLE12=Surrender
EXTD=YEAR: 2007
EXTT0=
EXTT1=
EXTT2=
EXTT3=
EXTT4=
EXTT5=
EXTT6=
EXTT7=
EXTT8=
EXTT9=
EXTT10=
EXTT11=
EXTT12=
PLAYORDER=
